# xmcd
#
# Track frame offsets:
#  150
#  11909
#  51144
#
# Disc length: 971 seconds
#
# Revision: 0
# Processed by: cddbd v1.5.1PL2 Copyright (c) Steve Scherf et al.
# Submitted via: Collectorz.com_Music_Collector 6.11
#
DISCID=1f03c903
DTITLE=Aaron Smith feat. Luvli - Dancin'
DYEAR=2006
DGENRE=Dance
TTITLE0=Dancin'
TTITLE1=Dancin'
TTITLE2=Data track
EXTD=
EXTT0=
EXTT1=
EXTT2=
PLAYORDER=
